<?xml version="1.0" standalone="no"?>
<!DOCTYPE svg PUBLIC "-//W3C//DTD SVG 20010904//EN"
 "http://www.w3.org/TR/2001/REC-SVG-20010904/DTD/svg10.dtd">
<svg version="1.0" xmlns="http://www.w3.org/2000/svg"
 width="500.000000pt" height="500.000000pt" viewBox="0 0 500.000000 500.000000"
 preserveAspectRatio="xMidYMid meet">

<g transform="translate(0.000000,500.000000) scale(0.100000,-0.100000)"
fill="#000000" stroke="none">
<path d="M688 2089 c-58 -17 -124 -81 -144 -141 -39 -117 7 -242 108 -294 69
-36 198 -27 260 17 28 20 28 21 28 130 l0 110 -77 -3 -78 -3 -3 -42 -3 -43 36
0 36 0 -3 -42 c-3 -41 -5 -44 -45 -58 -39 -13 -46 -12 -90 6 -88 36 -121 119
-81 201 39 78 128 106 210 65 l36 -19 26 33 c14 18 26 35 26 37 0 2 -21 14
-46 26 -52 26 -141 35 -196 20z"/>
<path d="M4052 2048 c-26 -26 -6 -68 33 -68 43 0 62 50 26 70 -26 13 -44 13
-59 -2z"/>
<path d="M1043 1933 c-23 -4 -23 -7 -23 -154 l0 -149 45 0 45 0 0 105 c0 100
1 105 25 121 15 10 34 14 49 10 22 -5 24 -2 28 34 3 37 2 40 -22 40 -15 0 -35
-7 -46 -15 -25 -19 -34 -19 -34 0 0 15 -19 17 -67 8z"/>
<path d="M1337 1915 c-48 -33 -67 -72 -67 -135 0 -64 29 -111 88 -139 54 -26
81 -26 137 0 115 54 121 210 11 278 -48 30 -121 28 -169 -4z m140 -60 c50 -35
37 -135 -20 -154 -70 -25 -127 28 -113 104 11 56 85 84 133 50z"/>
<path d="M1642 1823 c2 -65 10 -128 16 -140 25 -46 98 -65 159 -42 19 7 29 7
31 0 2 -6 21 -11 43 -11 l39 0 0 155 0 155 -40 0 -40 0 0 -98 c0 -116 -12
-142 -65 -142 -47 0 -55 20 -55 139 l0 101 -46 0 -46 0 4 -117z"/>
<path d="M2033 1933 l-23 -4 0 -220 0 -219 40 0 40 0 0 81 c0 74 2 80 18 73
37 -16 97 -15 131 3 46 24 71 60 78 111 15 115 -87 208 -189 173 -22 -8 -34
-8 -36 -1 -4 10 -18 11 -59 3z m192 -88 c31 -30 33 -82 5 -117 -24 -31 -59
-39 -99 -22 -33 14 -48 59 -36 112 11 53 88 70 130 27z"/>
<path d="M2443 1911 c-40 -29 -73 -90 -73 -134 1 -46 44 -110 91 -134 54 -27
82 -28 134 -4 65 30 88 62 93 131 4 48 0 65 -17 94 -50 80 -153 101 -228 47z
m131 -51 c37 -14 54 -76 32 -119 -42 -80 -156 -50 -156 41 0 68 56 104 124 78z"/>
<path d="M2783 1933 c-23 -4 -23 -7 -23 -154 l0 -149 40 0 40 0 0 100 c0 87 3
103 20 120 11 11 29 20 40 20 11 0 29 -9 40 -20 17 -17 20 -33 20 -120 l0
-100 40 0 40 0 0 100 c0 87 3 103 20 120 24 24 49 25 76 6 16 -12 19 -29 22
-120 l4 -106 39 0 39 0 0 113 c0 103 -2 115 -25 149 -18 27 -35 39 -61 44 -45
8 -102 -1 -123 -20 -15 -14 -19 -14 -33 0 -23 23 -91 29 -127 11 -26 -13 -31
-13 -31 -1 0 14 -13 15 -57 7z"/>
<path d="M3380 1925 c-44 -20 -44 -20 -31 -44 10 -18 18 -20 69 -15 47 5 61 3
75 -10 22 -23 22 -40 0 -31 -59 22 -124 12 -158 -25 -10 -11 -20 -39 -22 -63
-4 -35 -1 -48 18 -71 28 -32 91 -44 141 -27 22 8 34 8 36 1 2 -5 22 -10 44
-10 l40 0 -4 125 c-3 120 -4 126 -30 152 -22 22 -38 27 -85 30 -37 2 -70 -2
-93 -12z m118 -157 c18 -18 14 -56 -7 -68 -29 -15 -77 -12 -95 6 -20 20 -20
33 1 56 19 21 82 25 101 6z"/>
<path d="M3693 1933 c-23 -4 -23 -7 -23 -154 l0 -149 45 0 45 0 0 105 c0 100
1 105 25 121 35 23 70 12 84 -27 6 -18 11 -70 11 -115 l0 -84 40 0 40 0 0 104
c0 56 -5 117 -11 134 -21 60 -116 92 -167 56 -20 -14 -22 -14 -22 0 0 16 -19
18 -67 9z"/>
<path d="M4040 1785 l0 -155 45 0 45 0 0 155 0 155 -45 0 -45 0 0 -155z"/>
<path d="M4267 1926 c-49 -18 -51 -20 -35 -45 11 -18 19 -20 64 -15 55 7 94
-6 94 -32 0 -11 -5 -14 -17 -9 -101 40 -196 -26 -178 -122 11 -59 107 -94 168
-62 16 9 22 9 25 0 2 -6 22 -11 44 -11 l40 0 -4 125 c-3 120 -4 126 -30 151
-33 33 -112 42 -171 20z m113 -160 c6 -8 10 -25 8 -38 -6 -46 -95 -49 -122 -5
-24 40 83 80 114 43z"/>
</g>
</svg>
